<?xml version="1.0" encoding="utf-8"?>
<!-- Generator: Adobe Illustrator 25.1.0, SVG Export Plug-In . SVG Version: 6.00 Build 0)  -->
<svg version="1.1" id="Layer_1" xmlns="http://www.w3.org/2000/svg" xmlns:xlink="http://www.w3.org/1999/xlink" x="0px" y="0px"
	 viewBox="0 0 1200 1200" style="enable-background:new 0 0 1200 1200;" xml:space="preserve">
<style type="text/css">
	.st0{display:none;clip-path:url(#SVGID_2_);fill:url(#SVGID_3_);}
	.st1{clip-path:url(#SVGID_2_);fill:url(#SVGID_4_);}
	.st2{clip-path:url(#SVGID_2_);fill:url(#SVGID_5_);}
	.st3{clip-path:url(#SVGID_2_);fill:url(#SVGID_6_);}
	.st4{clip-path:url(#SVGID_2_);fill:url(#SVGID_7_);}
	.st5{clip-path:url(#SVGID_2_);fill:url(#SVGID_8_);}
	.st6{clip-path:url(#SVGID_2_);fill:url(#SVGID_9_);}
	.st7{clip-path:url(#SVGID_2_);fill:url(#SVGID_10_);}
	.st8{clip-path:url(#SVGID_2_);fill:url(#SVGID_11_);}
	.st9{clip-path:url(#SVGID_2_);fill:url(#SVGID_12_);}
	.st10{clip-path:url(#SVGID_2_);fill:url(#SVGID_13_);}
	.st11{clip-path:url(#SVGID_2_);fill:url(#SVGID_14_);}
	.st12{clip-path:url(#SVGID_2_);fill:url(#SVGID_15_);}
</style>
<g>
	<defs>
		<path id="SVGID_1_" d="M867.1,851.1c-51.3,34.4-113.8,53.6-180.8,50.8C529.2,895.4,401.9,766.6,397,609.5
			c-5.3-171.2,132-311.7,302-311.7c61,0,117.8,18.1,165.3,49.2c59.4,38.9,137.5,32.6,187.6-17.7l2.5-2.5
			c64.9-65.3,55-174.1-21.5-225.4C937.1,37.1,821.8-0.3,697.7,0C374.3,0.7,106.8,262.2,99.2,585.5c-8,338,263.6,614.5,599.8,614.5
			c125.7,0,242.4-38.7,338.8-104.8c74.2-50.9,84.9-156.4,22.2-221l-5.2-5.3C1005.2,817.6,926.4,811.2,867.1,851.1z"/>
	</defs>
	<clipPath id="SVGID_2_">
		<use xlink:href="#SVGID_1_"  style="overflow:visible;"/>
	</clipPath>
	<radialGradient id="SVGID_3_" cx="818.6263" cy="327.4938" r="314.0974" gradientUnits="userSpaceOnUse">
		<stop  offset="0" style="stop-color:#00C8FF"/>
		<stop  offset="1" style="stop-color:#0052FF"/>
	</radialGradient>
	<circle class="st0" cx="818.6" cy="327.5" r="314.1"/>
	<radialGradient id="SVGID_4_" cx="996.2542" cy="186.9155" r="492.5111" gradientUnits="userSpaceOnUse">
		<stop  offset="0" style="stop-color:#00C8FF"/>
		<stop  offset="1" style="stop-color:#0052FF"/>
	</radialGradient>
	<circle class="st1" cx="996.3" cy="186.9" r="492.5"/>
	<linearGradient id="SVGID_5_" gradientUnits="userSpaceOnUse" x1="-290.6458" y1="470.097" x2="1169.1602" y2="470.097">
		<stop  offset="0" style="stop-color:#0052FF"/>
		<stop  offset="1" style="stop-color:#00C8FF"/>
	</linearGradient>
	<circle class="st2" cx="439.3" cy="470.1" r="729.9"/>
	<linearGradient id="SVGID_6_" gradientUnits="userSpaceOnUse" x1="758.2625" y1="205.8905" x2="1101.9521" y2="205.8905">
		<stop  offset="0" style="stop-color:#0052FF"/>
		<stop  offset="0.1502" style="stop-color:#00C8FF"/>
		<stop  offset="0.5177" style="stop-color:#00CDFF"/>
		<stop  offset="0.7338" style="stop-color:#00EAEF"/>
		<stop  offset="0.9424" style="stop-color:#00FFE2"/>
	</linearGradient>
	<circle class="st3" cx="930.1" cy="205.9" r="171.8"/>
	<linearGradient id="SVGID_7_" gradientUnits="userSpaceOnUse" x1="600" y1="181.0356" x2="1035.2753" y2="181.0356">
		<stop  offset="0" style="stop-color:#0052FF"/>
		<stop  offset="0.4" style="stop-color:#00C8FF"/>
		<stop  offset="0.6762" style="stop-color:#00CDFF"/>
		<stop  offset="0.837" style="stop-color:#00EAEF"/>
		<stop  offset="1" style="stop-color:#00FFE2"/>
	</linearGradient>
	<circle class="st4" cx="817.6" cy="181" r="217.6"/>
	<linearGradient id="SVGID_8_" gradientUnits="userSpaceOnUse" x1="501.2371" y1="209.621" x2="964.0846" y2="209.621">
		<stop  offset="0" style="stop-color:#0052FF"/>
		<stop  offset="0.3134" style="stop-color:#00C8FF"/>
		<stop  offset="0.6583" style="stop-color:#00CDFF"/>
		<stop  offset="0.9125" style="stop-color:#00EAEF"/>
	</linearGradient>
	<circle class="st5" cx="732.7" cy="209.6" r="231.4"/>
	<linearGradient id="SVGID_9_" gradientUnits="userSpaceOnUse" x1="165.1718" y1="301.0339" x2="894.7343" y2="301.0339">
		<stop  offset="0" style="stop-color:#0052FF"/>
		<stop  offset="0.3479" style="stop-color:#00C8FF"/>
		<stop  offset="0.6377" style="stop-color:#00CDFF"/>
		<stop  offset="1" style="stop-color:#00EAEF"/>
	</linearGradient>
	<circle class="st6" cx="530" cy="301" r="364.8"/>
	<linearGradient id="SVGID_10_" gradientUnits="userSpaceOnUse" x1="-139.0696" y1="536.3995" x2="898.8027" y2="536.3995">
		<stop  offset="0" style="stop-color:#0052FF"/>
		<stop  offset="0.6346" style="stop-color:#00C8FF"/>
		<stop  offset="1" style="stop-color:#00CDFF"/>
	</linearGradient>
	<circle class="st7" cx="379.9" cy="536.4" r="518.9"/>
	<linearGradient id="SVGID_11_" gradientUnits="userSpaceOnUse" x1="89.8994" y1="1128.5127" x2="868.7057" y2="349.7063">
		<stop  offset="0.1677" style="stop-color:#0052FF"/>
		<stop  offset="0.5842" style="stop-color:#007DFF"/>
		<stop  offset="0.9152" style="stop-color:#00ACFF"/>
		<stop  offset="1" style="stop-color:#00C8FF"/>
	</linearGradient>
	<circle class="st8" cx="479.3" cy="739.1" r="550.7"/>
	<linearGradient id="SVGID_12_" gradientUnits="userSpaceOnUse" x1="183.9333" y1="797.7336" x2="1155.5035" y2="797.7336">
		<stop  offset="0" style="stop-color:#0052FF"/>
		<stop  offset="1" style="stop-color:#00C8FF"/>
	</linearGradient>
	<circle class="st9" cx="669.7" cy="797.7" r="485.8"/>
	<linearGradient id="SVGID_13_" gradientUnits="userSpaceOnUse" x1="390.6588" y1="792.7245" x2="1291.2076" y2="792.7245">
		<stop  offset="0" style="stop-color:#0052FF"/>
		<stop  offset="1" style="stop-color:#00C8FF"/>
	</linearGradient>
	<path class="st10" d="M390.7,739.2c0-248.7,224-343.3,472.7-343.3s427.9,94.6,427.9,343.3s-201.6,450.3-450.3,450.3
		S390.7,987.9,390.7,739.2z"/>
	
		<linearGradient id="SVGID_14_" gradientUnits="userSpaceOnUse" x1="585.9131" y1="888.2574" x2="1129.4424" y2="344.7281" gradientTransform="matrix(0.9605 -0.2784 0.2784 0.9605 -137.4777 272.6812)">
		<stop  offset="0" style="stop-color:#0052FF"/>
		<stop  offset="1" style="stop-color:#00C8FF"/>
	</linearGradient>
	<path class="st11" d="M1264.4,411c69.2,238.8-68.2,488.6-307.1,557.8s-488.6-68.2-557.8-307.1L1264.4,411z"/>
	<radialGradient id="SVGID_15_" cx="883.203" cy="354.3081" r="291.959" gradientUnits="userSpaceOnUse">
		<stop  offset="0" style="stop-color:#FFFFFF"/>
		<stop  offset="1" style="stop-color:#FFFFFF;stop-opacity:0"/>
	</radialGradient>
	<circle class="st12" cx="883.2" cy="354.3" r="292"/>
</g>
</svg>
